<?xml version="1.0" encoding="utf-8"?>
<!-- Generator: Adobe Illustrator 19.2.1, SVG Export Plug-In . SVG Version: 6.00 Build 0)  -->
<svg version="1.1" id="Layer_1" xmlns="http://www.w3.org/2000/svg" xmlns:xlink="http://www.w3.org/1999/xlink" x="0px" y="0px"
	 viewBox="0 0 1000 1000" style="enable-background:new 0 0 1000 1000;" xml:space="preserve">
<style type="text/css">
	.st0{fill:#666666;}
</style>
<g>
	<g transform="translate(0.000000,511.000000) scale(0.100000,-0.100000)">
		<path class="st0" d="M5997.9,5010c-229.7-2.6-296-53.6-1130.5-888.1c-837.1-839.6-885.5-900.9-888.1-1138.2
			c0-117.4,7.7-130.2,171-298.6l173.5-176.1l1084.5,1084.6l1082.1,1082.1l-86.8,94.4c-48.4,51.1-135.2,125.1-188.8,165.9
			C6138.3,4992.1,6087.2,5010,5997.9,5010z"/>
		<path class="st0" d="M6531.4,4219c-7.6,0-408.3-395.6-893.2-880.5L4757.7,2458l255.2-255.2l255.2-255.2L2915.1-408
			C659.1-2666.6,564.6-2766.1,518.7-2901.4c-102.1-319-35.7-615,191.4-844.7c186.2-188.8,372.6-262.9,615-245
			c339.4,22.9,201.6-99.6,2743.5,2442.3C5347.2-270.2,6403.7,773.6,6416.5,773.6c15.3,0,135.3-109.8,268-242.5l242.4-242.4
			l885.6,885.5l888.1,888.1l-1077,1077C7029,3734,6539,4219,6531.4,4219z"/>
		<path class="st0" d="M9188,1973c-7.6,0-500.2-484.9-1094.8-1079.5L7013.7-186l178.6-171c171-165.9,181.2-171,306.2-171
			c232.3,0,308.8,61.2,1140.8,898.3c421.1,426.2,786,803.9,809,842.2s53.6,119.9,68.9,186.3c33.2,153.2-7.7,250.1-181.2,433.9
			C9262,1909.2,9195.7,1973,9188,1973z"/>
		<path class="st0" d="M6493.1-2934.6c-1574.7-5.1-1664-7.6-1738-53.6c-135.2-81.6-163.3-158.2-163.3-446.6v-257.8h1926.8h1926.8
			v275.6c0,316.5-20.5,364.9-188.9,441.5C8157-2929.5,8070.2-2927,6493.1-2934.6z"/>
		<path class="st0" d="M6536.2-3998.9c-2723,0-2615.8,5.1-2730.7-140.4c-51-63.8-56.1-102-56.1-359.8V-4790h2781.8H9313v268
			c0,313.9-30.6,395.6-173.5,469.6C9047.7-4001.4,8981.3-4001.4,6536.2-3998.9z"/>
	</g>
</g>
</svg>
