<svg id="Слой_1" data-name="Слой 1" xmlns="http://www.w3.org/2000/svg" viewBox="0 0 194 66"><defs><style>.cls-1{fill:#520055;}.cls-1,.cls-2{fill-rule:evenodd;isolation:isolate;}.cls-2{fill:#f36f21;}</style></defs><title>лого</title><path class="cls-1" d="M37.48,65.09H27.18V39.72c0-2.38-.73-4.13-2.17-5.22a7.81,7.81,0,0,0-4.85-1.64,7.5,7.5,0,0,0-4.78,1.64c-1.39,1.1-2.09,2.84-2.09,5.22V65.09H2.85V41.81q0-10.14,5.3-13.58a23.14,23.14,0,0,1,11.72-3.73,30.21,30.21,0,0,1,6.71.75,14.14,14.14,0,0,1,6,3,13.11,13.11,0,0,1,5.3-2.76,29.69,29.69,0,0,1,6.34-1,22.51,22.51,0,0,1,12.09,3.43q5.52,3.44,5.53,13.88V65.09H56.58A4.85,4.85,0,0,1,51.5,60h0V39.72c0-2.38-.73-4.13-2.17-5.22a8,8,0,0,0-9.69,0c-1.44,1.1-2.17,2.84-2.17,5.22V65.09h0Zm95.13-32h15v4.09a4.85,4.85,0,0,1-1.49,3.67,5,5,0,0,1-3,1.39h-10.5v8.48a6.45,6.45,0,0,0,2.09,5.22,7.6,7.6,0,0,0,7.47,1.34c3.22-1.09,5.64-.49,7,3.39l0.93,2.71c-3.67,1.74-6.5,2.68-10.48,2.65-10.89-.08-17.42-5.86-17.42-17.41V30.44h0a4.94,4.94,0,0,1,1.43-3.66,5.09,5.09,0,0,1,3.72-1.41h5.29v5.42h0v2.26h0Zm-55.43,32h4.28A5,5,0,0,0,85,63.67a4.71,4.71,0,0,0,1.28-2.27h0l4.59-19.47h0l4.63,19.64a4.71,4.71,0,0,0,1.23,2.1,5,5,0,0,0,3.56,1.41h4.28a5,5,0,0,0,3.56-1.41,4.71,4.71,0,0,0,1.28-2.27h0l10.43-36h-6.93q-4.09,0-5,3.58l-5.83,23.88L97.15,29.07h0a4.71,4.71,0,0,0-1.28-2.27,5.09,5.09,0,0,0-3.72-1.41H89.6a5.09,5.09,0,0,0-3.72,1.41A4.71,4.71,0,0,0,84.62,29L79.7,52.84,73.87,29q-0.95-3.57-5-3.58H61.9l10.43,36h0l0.12,0.43a4.71,4.71,0,0,0,1.15,1.84A5,5,0,0,0,77.17,65.08Z"/><path class="cls-2" d="M156.65,33.26h5.94A13,13,0,0,0,174,26.94L190.43,0h-5.94a13,13,0,0,0-11.4,6.32Z"/></svg>