<?xml version="1.0" encoding="utf-8"?>
<!-- Generator: Adobe Illustrator 19.2.1, SVG Export Plug-In . SVG Version: 6.00 Build 0)  -->
<svg version="1.1" id="Layer_1" xmlns="http://www.w3.org/2000/svg" xmlns:xlink="http://www.w3.org/1999/xlink" x="0px" y="0px"
	 viewBox="0 0 80 80" style="enable-background:new 0 0 80 80;" xml:space="preserve">
<style type="text/css">
	.st0{fill:url(#SVGID_1_);}
	.st1{fill:#FFFFFF;}
</style>
<radialGradient id="SVGID_1_" cx="40" cy="40" r="40" gradientUnits="userSpaceOnUse">
	<stop  offset="0" style="stop-color:#763880"/>
	<stop  offset="1" style="stop-color:#510055"/>
</radialGradient>
<circle class="st0" cx="40" cy="40" r="40"/>
<g>
	<path class="st1" d="M24.2,47v-9.5v-0.9c0-0.9,0.3-1.7,0.9-2c0.6-0.6,1.1-0.6,2-0.6c0.9,0,1.4,0.3,2,0.6c0.6,0.6,0.9,1.1,0.9,2V45
		l0,0c0,0.6,0.3,1.1,0.6,1.4c0.3,0.3,0.9,0.6,1.4,0.6h2.3v-9.5c0-2.9-0.9-4.9-2.3-5.7c-1.4-0.9-3.2-1.4-4.9-1.4
		c-0.9,0-1.7,0.3-2.6,0.3c-0.9,0.3-1.4,0.6-2.3,1.1c-0.9-0.6-1.4-1.1-2.6-1.1c-0.9-0.3-1.7-0.3-2.9-0.3c-1.7,0-3.4,0.6-4.9,1.4
		s-2.3,2.9-2.3,5.4v9.5h4.3V36.4c0-0.9,0.3-1.7,0.9-2c0.6-0.6,1.1-0.6,2-0.6c0.9,0,1.4,0.3,2,0.6c0.6,0.6,0.9,1.1,0.9,2v0.9v9.5h4.6
		V47z M63.2,33.8V33l0,0v-2.3h-2.3c-0.6,0-1.1,0.3-1.4,0.6c-0.3,0.3-0.6,0.9-0.6,1.4l0,0V33v3.4v4c0,4.9,2.6,7.2,7.2,7.2
		c1.7,0,2.9-0.3,4.3-1.1l-0.3-1.1c-0.6-1.7-1.4-1.7-2.9-1.4c-0.9,0.3-2,0.3-3.2-0.6c-0.6-0.6-0.9-1.1-0.9-2v-3.4h4.3
		c0.6,0,0.9-0.3,1.1-0.6c0.3-0.3,0.6-0.9,0.6-1.4v-1.7h-6V33.8z M39.1,46.5c-0.3-0.3-0.3-0.6-0.6-0.9v-0.3l0,0l0,0l-4.3-14.6h2.9
		l0,0c1.1,0,1.7,0.6,2,1.4l2.3,9.7l2-9.7c0-0.3,0.3-0.6,0.6-0.9c0.3-0.3,0.9-0.6,1.4-0.6h0.3h0.6h0.3c0.6,0,1.1,0.3,1.4,0.6
		c0.6,0.3,0.6,0.9,0.6,1.1l0,0l2,9.7l2.3-9.7c0.3-0.9,0.9-1.4,2-1.4l0,0h2.9l-4.3,14.6l0,0c0,0.3-0.3,0.6-0.6,0.9
		C52.6,46.7,52,47,51.5,47h-1.7c-0.6,0-1.1-0.3-1.4-0.6c-0.3-0.3-0.3-0.6-0.6-0.9l-2-8l0,0l0,0l-2,8l0,0c0,0.3-0.3,0.6-0.6,0.9
		c-0.3,0.3-0.9,0.6-1.4,0.6H40C40,47,39.4,47,39.1,46.5z"/>
</g>
</svg>
