<svg id="Layer_1" data-name="Layer 1" xmlns="http://www.w3.org/2000/svg" xmlns:xlink="http://www.w3.org/1999/xlink" viewBox="0 0 80 80"><defs><style>.cls-1,.cls-2{fill-rule:evenodd;}.cls-1{fill:url(#radial-gradient);}.cls-2{fill:#fff;}</style><radialGradient id="radial-gradient" cx="40.74" cy="33.23" r="17.62" gradientUnits="userSpaceOnUse"><stop offset="0" stop-color="#00a5e3"/><stop offset="1" stop-color="#0074bb"/></radialGradient></defs><title>маркер</title><path class="cls-1" d="M54.74,33.44c0,7.73-14,27.22-14,27.22s-14-19.49-14-27.22A14,14,0,1,1,54.74,33.44Z"/><path class="cls-2" d="M38,25.22a8.36,8.36,0,0,1,10.13,4c-0.09.38-.18,0.76-0.3,1.12a8.32,8.32,0,0,1-3.22,4.29A8.46,8.46,0,0,1,38.24,36a7,7,0,0,0,6,1.22,7.86,7.86,0,0,0,4.9-4.05,8.32,8.32,0,0,1-5.68,7.9,8.4,8.4,0,0,1-10.63-5.2A8.37,8.37,0,0,1,38,25.22h0Zm-0.76,8.35a5.4,5.4,0,0,1,1.88-3.07,5.73,5.73,0,0,1,3.53-1.08c0.19,0-1.77-2.88-4.94-.19,1.31-.84,2-0.83,2.29-0.75s0.37,0.17.05,0.31a4.32,4.32,0,0,0-2.33,2.28A4.84,4.84,0,0,0,37.25,33.57Z"/></svg>