<?xml version="1.0" encoding="utf-8"?>
<!-- Generator: Adobe Illustrator 19.2.1, SVG Export Plug-In . SVG Version: 6.00 Build 0)  -->
<svg version="1.1" id="Layer_1" xmlns="http://www.w3.org/2000/svg" xmlns:xlink="http://www.w3.org/1999/xlink" x="0px" y="0px"
	 viewBox="0 0 80 80" style="enable-background:new 0 0 80 80;" xml:space="preserve">
<style type="text/css">
	.st0{fill-rule:evenodd;clip-rule:evenodd;fill:#168ACB;}
	.st1{fill-rule:evenodd;clip-rule:evenodd;fill:#FFFFFF;}
</style>
<circle class="st0" cx="40" cy="40" r="40"/>
<path class="st1" d="M31,14c11.8-4,24.4,0.4,31.3,10c0.8,1,1.4,2.2,2,3.3c-0.3,1.3-0.6,2.5-1,3.7c-1.6,4.9-4.3,9.3-10.6,14.1
	c-7.8,5.9-18.6,5.1-21,4.3c4.7,4.3,13.1,5.6,19.7,4c6.5-1.6,12-6.1,16.1-13.3c0,10.5-6.3,21.7-18.7,26c-5.8,2-12.9,2-19.1-0.5
	c-7.2-2.9-13.2-8.9-15.9-16.6C9,34.6,16.7,18.9,31,14 M28.5,41.4c0,0,1.2-6.4,6.2-10.1c5-3.7,11-3.7,11.6-3.5
	c0.6,0.1-5.8-9.5-16.2-0.6c4.3-2.8,6.5-2.7,7.5-2.5c1,0.3,1.2,0.6,0.2,1c-1,0.4-5.5,2.4-7.7,7.5C28,38.3,28.5,41.4,28.5,41.4z"/>
</svg>
