<?xml version="1.0" encoding="utf-8"?>
<!-- Generator: Adobe Illustrator 19.2.1, SVG Export Plug-In . SVG Version: 6.00 Build 0)  -->
<svg version="1.1" id="Layer_1" xmlns="http://www.w3.org/2000/svg" xmlns:xlink="http://www.w3.org/1999/xlink" x="0px" y="0px"
	 viewBox="0 0 80 80" style="enable-background:new 0 0 80 80;" xml:space="preserve">
<style type="text/css">
	.st0{fill-rule:evenodd;clip-rule:evenodd;fill:url(#SVGID_1_);}
	.st1{fill-rule:evenodd;clip-rule:evenodd;fill:#F9A739;}
</style>
<title>маркер</title>
<g>
	<radialGradient id="SVGID_1_" cx="40.9198" cy="34.3833" r="17.6177" gradientUnits="userSpaceOnUse">
		<stop  offset="0" style="stop-color:#763880"/>
		<stop  offset="1" style="stop-color:#510055"/>
	</radialGradient>
	<path class="st0" d="M54.8,33.4c0,7.7-14,27.2-14,27.2s-14-19.5-14-27.2s6.3-14,14-14S54.8,25.7,54.8,33.4z"/>
	<g>
		<path class="st1" d="M35.5,35.4v-3.3v-0.3c0-0.3,0.1-0.6,0.3-0.7c0.2-0.2,0.4-0.2,0.7-0.2c0.3,0,0.5,0.1,0.7,0.2
			c0.2,0.2,0.3,0.4,0.3,0.7v2.9l0,0c0,0.2,0.1,0.4,0.2,0.5c0.1,0.1,0.3,0.2,0.5,0.2H39v-3.3c0-1-0.3-1.7-0.8-2
			c-0.5-0.3-1.1-0.5-1.7-0.5c-0.3,0-0.6,0.1-0.9,0.1c-0.3,0.1-0.5,0.2-0.8,0.4c-0.3-0.2-0.5-0.4-0.9-0.4c-0.3-0.1-0.6-0.1-1-0.1
			c-0.6,0-1.2,0.2-1.7,0.5c-0.5,0.3-0.8,1-0.8,1.9v3.3h1.5v-3.6c0-0.3,0.1-0.6,0.3-0.7c0.2-0.2,0.4-0.2,0.7-0.2
			c0.3,0,0.5,0.1,0.7,0.2c0.2,0.2,0.3,0.4,0.3,0.7v0.3v3.3H35.5L35.5,35.4z M49.1,30.8v-0.3h0v-0.8h-0.8c-0.2,0-0.4,0.1-0.5,0.2
			c-0.1,0.1-0.2,0.3-0.2,0.5l0,0v0.1v1.2v1.4c0,1.7,0.9,2.5,2.5,2.5c0.6,0,1-0.1,1.5-0.4l-0.1-0.4c-0.2-0.6-0.5-0.6-1-0.5
			c-0.3,0.1-0.7,0.1-1.1-0.2c-0.2-0.2-0.3-0.4-0.3-0.7v-1.2h1.5c0.2,0,0.3-0.1,0.4-0.2c0.1-0.1,0.2-0.3,0.2-0.5v-0.6H49.1L49.1,30.8
			z M40.7,35.2c-0.1-0.1-0.1-0.2-0.2-0.3l0-0.1l0,0h0L39,29.7h1l0,0c0.4,0,0.6,0.2,0.7,0.5l0.8,3.4l0.7-3.4c0-0.1,0.1-0.2,0.2-0.3
			c0.1-0.1,0.3-0.2,0.5-0.2h0.1h0.2h0.1c0.2,0,0.4,0.1,0.5,0.2C44,30,44,30.2,44,30.3h0l0.7,3.4l0.8-3.4c0.1-0.3,0.3-0.5,0.7-0.5
			l0,0h1l-1.5,5.1h0c0,0.1-0.1,0.2-0.2,0.3c-0.1,0.1-0.3,0.2-0.5,0.2h-0.6c-0.2,0-0.4-0.1-0.5-0.2c-0.1-0.1-0.1-0.2-0.2-0.3
			l-0.7-2.8l0,0l0,0l-0.7,2.8h0c0,0.1-0.1,0.2-0.2,0.3c-0.1,0.1-0.3,0.2-0.5,0.2h-0.6C41,35.4,40.8,35.4,40.7,35.2z"/>
	</g>
</g>
</svg>
