<?xml version="1.0" encoding="utf-8"?>
<!-- Generator: Adobe Illustrator 22.1.0, SVG Export Plug-In . SVG Version: 6.00 Build 0)  -->
<svg version="1.1" id="Слой_1" xmlns="http://www.w3.org/2000/svg" xmlns:xlink="http://www.w3.org/1999/xlink" x="0px" y="0px"
	 viewBox="0 0 141.7 141.7" style="enable-background:new 0 0 141.7 141.7;" xml:space="preserve">
<style type="text/css">
	.st0{fill:#7B2381;}
	.st1{fill:#7A237E;}
	.st2{enable-background:new    ;}
</style>
<g>
	<g>
		<g>
			<g>
				<g>
					<g>
						<path id="SVGID_1_" class="st0" d="M72.7,112.5v-11.2L70,102L69.2,99l4.3-1.2h3.1v14.7H72.7L72.7,112.5z M84.3,112.9
							c-2.3,0-3.9-0.8-5-1.9l1.9-2.7c1.2,0.8,1.9,1.2,3.1,1.2c1.5,0,2.7-1.2,2.7-3.1c-0.8,0.8-1.9,1.2-3.1,1.2c-2.7,0-5-1.9-5-4.6
							c0-3.1,2.3-5.4,5.8-5.4c2.3,0,3.5,0.8,4.6,1.5c1.2,1.2,1.9,2.7,1.9,5.4C91.3,109.4,88.6,112.9,84.3,112.9L84.3,112.9z
							 M85.1,100.5c-1.2,0-1.9,0.8-1.9,1.9s0.8,1.9,1.9,1.9s1.9-0.8,1.9-1.9C87,101.7,86.2,100.5,85.1,100.5L85.1,100.5z
							 M92.8,112.5v-4.3h4.3v4.3H92.8L92.8,112.5z M105.2,112.9c-4.3,0-7-3.5-7-7.7s2.7-7.7,7-7.7c4.3,0,7,3.5,7,7.7
							C111.8,109.4,109.1,112.9,105.2,112.9L105.2,112.9z M105.2,101.3c-1.5,0-2.7,1.5-2.7,3.9s1.2,3.9,2.7,3.9
							c1.5,0,2.7-1.5,2.7-3.9C107.9,102.8,106.7,101.3,105.2,101.3L105.2,101.3z M120.3,112.9c-4.3,0-7-3.5-7-7.7s2.7-7.7,7-7.7
							c4.3,0,7,3.5,7,7.7S124.5,112.9,120.3,112.9L120.3,112.9z M120.3,101.3c-1.5,0-2.7,1.5-2.7,3.9s1.2,3.9,2.7,3.9
							c1.5,0,2.7-1.5,2.7-3.9C123,102.8,121.8,101.3,120.3,101.3L120.3,101.3z"/>
					</g>
				</g>
			</g>
		</g>
	</g>
	<g>
		<g>
			<path class="st1" d="M68.8,18.1c1.9,0.4,3.9,0.4,5.8,0.8c18.6,3.1,33.6,18.6,36.7,36.7c0.4,1.9,0.4,3.9,0.8,6.2
				c0.4-0.4,0.4-0.4,0.8-0.8c1.9-1.9,3.9-3.9,5.8-5.8c0.8-0.8,1.9-1.2,2.7-0.4c0.8,0.8,0.8,1.9,0,2.7c-3.1,3.1-6.2,6.2-9.3,9.3
				c-1.2,1.2-1.9,1.2-2.7,0c-3.1-3.1-6.2-6.2-9.3-9.3c-0.8-0.8-1.2-1.9-0.4-2.7c0.8-0.8,1.9-0.8,2.7,0.4c1.9,1.9,4.3,4.3,6.2,6.2
				c0.4-5.8-2.7-16.6-9.7-24.8C90.9,27,80.4,22,67.7,21.2c0,1.5,0,3.1,0,4.6c0,1.2-0.8,2.3-1.5,2.3c-1.2,0-1.5-0.8-1.5-2.3
				s0-3.1,0-4.6C42.2,21.6,24,40.6,23.2,62.6c1.9,0,3.9,0,5.8,0c0.4,0,0.8,0,1.2,0c1.2,0,1.5,0.8,1.5,1.5c0,0.8-0.8,1.5-1.5,1.5
				c-1.9,0-3.9,0-5.4,0c-0.4,0-0.8,0-1.2,0c0.4,5,1.2,9.7,3.1,14.3c6.2,14.7,17.4,23.6,33.3,26.7c1.5,0.4,3.1,0.4,4.3,0.4
				s1.9,0.4,1.9,1.2c0.4,1.2-0.4,1.9-1.2,2.3c-0.8,0-1.2,0-1.9,0c-1.9-0.4-3.9-0.4-5.8-0.8C39.1,106.3,23.6,91.2,20.5,73
				c-0.4-1.9-0.4-3.9-0.8-5.8c0-1.9,0-3.9,0-5.4c0.4-1.9,0.4-3.9,0.8-5.8c3.1-18.2,17.8-32.9,35.6-36.7c2.3-0.4,4.6-0.8,7-1.2
				C65,18.1,66.9,18.1,68.8,18.1z"/>
			<path class="st1" d="M65.7,69.6c-3.5,0-5.8-3.1-5-6.6c0-0.8,0-1.2-0.4-1.5c-2.7-2.7-5-5-7.7-7.7c-0.8-0.8-1.2-1.9-0.4-2.7
				s1.9-0.8,2.7,0.4c2.7,2.7,5,5,7.7,7.7c0.4,0.4,0.8,0.8,1.5,0.4c0.8-0.4,1.5-0.4,2.7,0c0.8,0.4,1.2,0,1.9-0.8
				c5.8-5.8,11.2-11.6,17-17c0.4-0.4,0.4-0.4,0.8-0.8c0.8-0.4,1.5-0.4,1.9,0.4c0.8,0.8,0.8,1.2,0.4,1.9c0,0.8-0.4,0.8-0.4,1.2
				c-5.8,5.8-11.2,11.6-17,17c-0.4,0.4-0.8,0.8-0.4,1.5C71.9,66.5,69.2,69.9,65.7,69.6z M67.7,64.5c0-0.8-0.8-1.5-1.5-1.5
				c-0.8,0-1.5,0.8-1.5,1.5c0,0.8,0.8,1.5,1.5,1.5C66.9,66.5,67.7,65.3,67.7,64.5z"/>
		</g>
	</g>
	<g class="st2">
		<path class="st0" d="M72.7,120.2h7.7v7.7h-2.7v-5.8h-2.3v5.8h-2.7C72.7,128,72.7,120.2,72.7,120.2z"/>
		<path class="st0" d="M81.6,124.5c0-2.3,1.9-4.3,4.3-4.3c2.7,0,4.3,1.9,4.3,4.3s-1.9,4.3-4.3,4.3C83.5,128.3,81.6,126.4,81.6,124.5
			z M87.4,124.5c0-1.2-0.8-1.9-1.5-1.9c-1.2,0-1.5,0.8-1.5,1.9s0.8,1.9,1.5,1.9C87,126,87.4,125.3,87.4,124.5z"/>
		<path class="st0" d="M95.5,117.9h3.1l2.3,3.9l2.3-3.9h3.1V128h-2.7v-5.8l-2.7,3.9l0,0l-2.7-3.9v5.8h-2.7L95.5,117.9L95.5,117.9z"
			/>
		<path class="st0" d="M107.9,123.3c0-3.1,2.3-5.4,5.4-5.4c1.9,0,3.5,0.8,4.3,2.3l-1.9,1.2c-0.8-0.8-1.2-1.2-2.3-1.2
			c-1.5,0-2.3,1.2-2.3,2.7c0,1.5,1.2,2.7,2.3,2.7c1.2,0,1.5-0.4,2.3-1.2l2.3,1.5c-0.8,1.2-2.3,2.3-4.6,2.3
			C110.2,128.3,107.9,126,107.9,123.3z"/>
		<path class="st0" d="M119.1,117.9h2.7v4.3l3.5-4.3h3.5l-3.9,4.3l3.9,5.8h-3.5l-2.7-3.9l-1.2,1.2v2.7h-2.7L119.1,117.9L119.1,117.9
			z"/>
	</g>
	<g class="st2">
		<path class="st0" d="M72.7,88.5l1.9-3.1c1.2,0.8,2.3,1.2,3.5,1.2c1.9,0,2.7-1.2,3.1-3.5c-0.8,0.8-1.9,1.2-3.5,1.2
			c-3.1,0-5.4-1.9-5.4-5c0-3.5,2.7-5.8,6.6-5.8c2.3,0,3.9,0.8,5,1.9s1.9,3.1,1.9,6.2c0,5.4-2.7,8.9-7.3,8.9
			C76.2,90.4,74.3,89.7,72.7,88.5z M81.6,79.2c0-1.2-0.8-2.3-2.3-2.3S77,77.7,77,79.2c0,1.2,0.8,2.3,2.3,2.3
			C80.8,81.2,81.6,80.4,81.6,79.2z"/>
		<path class="st0" d="M87.8,85.4h4.6v4.6h-4.6V85.4z"/>
		<path class="st0" d="M94,81.9c0-4.6,3.1-8.5,7.3-8.5s7.3,3.9,7.3,8.5s-3.1,8.5-7.3,8.5S94,86.6,94,81.9z M104.4,81.9
			c0-2.7-1.2-4.6-3.1-4.6s-3.1,1.9-3.1,4.6s1.2,4.6,3.1,4.6C103.3,86.2,104.4,84.6,104.4,81.9z"/>
		<path class="st0" d="M110.6,81.9c0-4.6,3.1-8.5,7.3-8.5c4.3,0,7.3,3.9,7.3,8.5s-3.1,8.5-7.3,8.5C113.7,90.4,110.6,86.6,110.6,81.9
			z M121.4,81.9c0-2.7-1.2-4.6-3.1-4.6s-3.1,1.9-3.1,4.6s1.2,4.6,3.1,4.6S121.4,84.6,121.4,81.9z"/>
	</g>
</g>
</svg>
