<?xml version="1.0" encoding="UTF-8"?>
<svg width="19px" height="19px" viewBox="0 0 19 19" version="1.1" xmlns="http://www.w3.org/2000/svg" xmlns:xlink="http://www.w3.org/1999/xlink">
    <defs>
        <linearGradient x1="59.1962019%" y1="0%" x2="59.1962039%" y2="74.0235134%" id="linearGradient-1">
            <stop stop-color="#FFCC0E" offset="0%"></stop>
            <stop stop-color="#FA8727" offset="100%"></stop>
        </linearGradient>
    </defs>
    <g id="Page-1" stroke="none" stroke-width="1" fill="none" fill-rule="evenodd">
        <path d="M7.49238438,12.6069627 C7.2659212,12.8695665 6.99689191,13.2228358 6.78881795,13.6202292 C6.65045881,13.8844766 7.01856325,14.4893329 6.82770799,14.6872852 C6.0272305,15.5175287 2.72607565,18.8043592 2.72607565,18.8043592 C2.72607565,18.8043592 1.78709456,19.4472508 0.676406657,18.4022237 C-0.434281251,17.3571966 0.157485836,16.2631429 0.157485836,16.2631429 C0.157485836,16.2631429 3.23796442,13.1470302 4.16112829,12.2575461 C4.36372386,12.0623419 4.89286336,12.2835289 5.14444792,12.1311857 C5.58220194,11.8661104 5.98519451,11.5713816 6.28266856,11.3394544 C5.40382913,10.1560485 4.88349626,8.68772265 4.88349626,7.09719597 C4.88349626,3.17752287 8.04358326,0 11.9417481,0 C15.839913,0 19,3.17752287 19,7.09719597 C19,11.0168691 15.839913,14.1943919 11.9417481,14.1943919 C10.2550389,14.1943919 8.70651516,13.5994855 7.49238438,12.6069627 Z M11.9417481,11.3555136 C14.2806471,11.3555136 16.1766993,9.44899983 16.1766993,7.09719597 C16.1766993,4.74539211 14.2806471,2.83887839 11.9417481,2.83887839 C9.60284921,2.83887839 7.70679701,4.74539211 7.70679701,7.09719597 C7.70679701,9.44899983 9.60284921,11.3555136 11.9417481,11.3555136 Z" id="Combined-Shape" fill="url(#linearGradient-1)"></path>
    </g>
</svg>
