<svg width="38" height="38" viewBox="0 0 38 38" fill="none" xmlns="http://www.w3.org/2000/svg">
<path d="M28.7001 22.5931C26.0589 22.5931 23.9102 24.7418 23.9102 27.3831C23.9102 30.0243 26.0589 32.173 28.7001 32.173C31.3418 32.173 33.49 30.0243 33.49 27.3831C33.49 24.7418 31.3413 22.5931 28.7001 22.5931ZM28.7001 29.778C27.3793 29.778 26.3051 28.7039 26.3051 27.3831C26.3051 26.0623 27.3793 24.9881 28.7001 24.9881C30.0209 24.9881 31.0951 26.0623 31.0951 27.3831C31.0951 28.7039 30.0209 29.778 28.7001 29.778Z" fill="#520055"/>
<path d="M12.3339 22.5931C9.69265 22.5931 7.54395 24.7418 7.54395 27.3831C7.54395 30.0243 9.69265 32.173 12.3339 32.173C14.9751 32.173 17.1238 30.0243 17.1238 27.3831C17.1238 24.7418 14.9751 22.5931 12.3339 22.5931ZM12.3339 29.778C11.0131 29.778 9.93891 28.7039 9.93891 27.3831C9.93891 26.0623 11.0131 24.9881 12.3339 24.9881C13.6543 24.9881 14.7288 26.0623 14.7288 27.3831C14.7288 28.7039 13.6547 29.778 12.3339 29.778Z" fill="#520055"/>
<path d="M31.9252 8.88294C31.7217 8.4786 31.3077 8.22351 30.8551 8.22351H24.5483V10.6185H30.1166L33.3773 17.104L35.5176 16.0278L31.9252 8.88294Z" fill="#520055"/>
<path d="M25.1078 26.2257H16.0469V28.6207H25.1078V26.2257Z" fill="#520055"/>
<path d="M8.74098 26.2257H4.58978C3.92834 26.2257 3.39233 26.7618 3.39233 27.4232C3.39233 28.0846 3.92842 28.6206 4.58978 28.6206H8.74106C9.40249 28.6206 9.9385 28.0845 9.9385 27.4232C9.9385 26.7617 9.40242 26.2257 8.74098 26.2257Z" fill="#520055"/>
<path d="M37.748 18.9051L35.3926 15.8714C35.1663 15.5793 34.817 15.4084 34.4469 15.4084H25.7452V7.02606C25.7452 6.36462 25.2092 5.82861 24.5478 5.82861H4.58978C3.92834 5.82861 3.39233 6.36469 3.39233 7.02606C3.39233 7.68742 3.92842 8.2235 4.58978 8.2235H23.3503V16.6058C23.3503 17.2673 23.8864 17.8033 24.5477 17.8033H33.8605L35.6045 20.0497V26.2256H32.2914C31.63 26.2256 31.094 26.7616 31.094 27.423C31.094 28.0844 31.63 28.6204 32.2914 28.6204H36.8019C37.4633 28.6204 37.9993 28.0844 37.9994 27.423V19.6395C37.9994 19.3737 37.9108 19.115 37.748 18.9051Z" fill="#520055"/>
<path d="M8.66194 20.1586H3.1535C2.49206 20.1586 1.95605 20.6947 1.95605 21.356C1.95605 22.0175 2.49214 22.5535 3.1535 22.5535H8.66187C9.3233 22.5535 9.85931 22.0174 9.85931 21.356C9.85939 20.6947 9.3233 20.1586 8.66194 20.1586Z" fill="#520055"/>
<path d="M11.416 15.4482H1.19745C0.536082 15.4482 0 15.9843 0 16.6458C0 17.3072 0.536082 17.8432 1.19745 17.8432H11.416C12.0774 17.8432 12.6134 17.3071 12.6134 16.6458C12.6134 15.9844 12.0774 15.4482 11.416 15.4482Z" fill="#520055"/>
<path d="M13.372 10.7384H3.1535C2.49206 10.7384 1.95605 11.2745 1.95605 11.9358C1.95605 12.5973 2.49214 13.1333 3.1535 13.1333H13.372C14.0334 13.1333 14.5695 12.5972 14.5695 11.9358C14.5695 11.2745 14.0334 10.7384 13.372 10.7384Z" fill="#520055"/>
</svg>
