<?xml version="1.0" encoding="utf-8"?>
<!-- Generator: Adobe Illustrator 19.2.1, SVG Export Plug-In . SVG Version: 6.00 Build 0)  -->
<svg version="1.1" id="Layer_1" xmlns="http://www.w3.org/2000/svg" xmlns:xlink="http://www.w3.org/1999/xlink" x="0px" y="0px"
	 viewBox="0 0 47 40" style="enable-background:new 0 0 47 40;" xml:space="preserve">
<style type="text/css">
	.st0{fill:#505050;}
</style>
<g>
	<path class="st0" d="M8.9,29.6c-2.7,0.1-4.9,2.3-5,5c-0.1,2.9,2.2,5.3,5,5.3c2.7-0.1,4.9-2.3,5-5C14,32.1,11.8,29.7,8.9,29.6z
		 M10.7,34.9c0,1-0.9,1.9-2,1.8c-1,0-1.9-0.9-1.8-2c0-1,0.9-1.9,2-1.8C9.9,32.9,10.8,33.8,10.7,34.9C10.7,34.8,10.7,34.8,10.7,34.9z
		"/>
	<path class="st0" d="M27.5,29.6c-2.9,0.1-5.1,2.5-5,5.3s2.5,5.1,5.3,5c2.8,0,5.1-2.4,5-5.2c0,0,0-0.1,0-0.1
		C32.7,31.8,30.4,29.6,27.5,29.6z M29.6,34.9c0,1-0.9,1.9-2,1.8c-1,0-1.9-0.9-1.8-2c0-1,0.9-1.9,2-1.8v0
		C28.8,32.9,29.6,33.8,29.6,34.9C29.6,34.8,29.6,34.8,29.6,34.9z"/>
	<path class="st0" d="M45.4,0H39c-0.7,0-1.3,0.5-1.5,1.1l-2.6,8.3H19.6c-0.2-0.1-0.4-0.1-0.6-0.1c-0.1,0-0.2,0-0.4,0.1h-17
		c-0.5,0-1,0.3-1.3,0.7c-0.3,0.4-0.4,1-0.2,1.5l4.7,15.1c0.2,0.7,0.8,1.1,1.5,1.1h25v0c0.7,0,1.3-0.5,1.5-1.1l2-6.5
		c0.1-0.2,0.2-0.5,0.2-0.7l2.4-7.6c0.1-0.2,0.1-0.3,0.2-0.5l2.5-8.1h5.2c0,0,0,0,0,0c0.9,0,1.6-0.7,1.6-1.6c0,0,0,0,0,0
		C47,0.7,46.3,0,45.4,0z M32.3,17.8h-4.2l0.9-5h4.8L32.3,17.8z M20.7,24.6V21h3.6l-0.6,3.5H20.7z M14.6,24.6L13.9,21h3.7v3.5H14.6z
		 M13.2,17.8l-1-5h5.4v5H13.2z M20.7,17.8v-5h5.1l-0.9,5H20.7z M8.9,12.8l1,5H5.4l-1.6-5H8.9z M6.4,21h4.2l0.7,3.5H7.5L6.4,21z
		 M27,24.6l0.6-3.5h3.7l-1.1,3.5H27z"/>
</g>
</svg>
