<svg xmlns="http://www.w3.org/2000/svg" width="15" height="15" viewBox="0 0 15 15">
  <defs>
    <style>
      .cls-1 {
        fill: #525252;
        fill-rule: evenodd;
      }
    </style>
  </defs>
  <path id="Shape_7_copy" data-name="Shape 7 copy" class="cls-1" d="M369.174,2619.18H366.44v-2.13h2.734v2.13Zm-6.275-2.13h2.717v2.13H362.9v-2.13Zm-3.542,0h2.717v2.13h-2.717v-2.13Zm-3.534,0h2.71v2.13h-2.71v-2.13Zm0-10.1h1.61a1.563,1.563,0,0,0,3.025,0h4.057a1.563,1.563,0,0,0,3.026,0h1.633V2610H355.823v-3.05Zm2.377-.39a0.726,0.726,0,0,1,.154-0.43,0.718,0.718,0,0,1,1.182,0,0.726,0.726,0,0,1,.154.43,0.688,0.688,0,0,1-.13.39,0.715,0.715,0,0,1-1.23,0,0.688,0.688,0,0,1-.13-0.39h0Zm7.083,0a0.726,0.726,0,0,1,.154-0.43,0.718,0.718,0,0,1,1.182,0,0.726,0.726,0,0,1,.154.43,0.688,0.688,0,0,1-.13.39,0.715,0.715,0,0,1-1.23,0,0.7,0.7,0,0,1-.13-0.39h0Zm1.157,7.38h2.734v2.28H366.44v-2.28Zm-3.541,0h2.717v2.28H362.9v-2.28Zm-3.542,0h2.717v2.28h-2.717v-2.28Zm-3.534,0h2.71v2.28h-2.71v-2.28Zm2.71-.83h-2.71v-2.28h2.71v2.28Zm3.541,0h-2.717v-2.28h2.717v2.28Zm3.542,0H362.9v-2.28h2.717v2.28Zm3.558,0H366.44v-2.28h2.734v2.28Zm0-6.98H367.53a1.563,1.563,0,0,0-3,0h-4.079a1.563,1.563,0,0,0-3,0h-1.62a0.824,0.824,0,0,0-.825.82v12.23a0.824,0.824,0,0,0,.825.82h13.351a0.824,0.824,0,0,0,.825-0.82v-12.23a0.824,0.824,0,0,0-.825-0.82h0Z" transform="translate(-355 -2605)"/>
</svg>
