<svg width="24" height="24" viewBox="0 0 24 24" fill="none" xmlns="http://www.w3.org/2000/svg">
<path d="M21.3587 6.40072H20.3567H18.7971C19.7098 5.81903 20.3092 4.86262 20.3092 3.7812C20.3092 2.01158 18.71 0.572021 16.7447 0.572021C15.0769 0.572021 13.1021 3.47186 11.9999 5.34609C10.8976 3.47218 8.92215 0.572021 7.25475 0.572021C5.28937 0.572021 3.69017 2.01189 3.69017 3.7812C3.69017 4.86262 4.28924 5.81903 5.20231 6.40072H3.79609H2.64132C1.50007 6.40072 0.571289 7.34277 0.571289 8.50041V11.8295C0.571289 12.6542 1.04338 13.367 1.72669 13.7101V21.3288C1.72669 22.4871 2.65515 23.4292 3.79609 23.4292H20.3564C21.4979 23.4292 22.4264 22.4871 22.4264 21.3288V13.6256C23.0258 13.2576 23.4284 12.5917 23.4284 11.8301V8.50073C23.4287 7.34309 22.5003 6.40072 21.3587 6.40072ZM2.64132 12.0161C2.5398 12.0161 2.45714 11.9325 2.45714 11.8298V8.50041C2.45714 8.39772 2.5398 8.31417 2.64132 8.31417H11.0566V12.0157L2.64132 12.0161ZM12.9428 8.31417H21.3587C21.4602 8.31417 21.5429 8.39772 21.5429 8.50041V11.8295C21.5429 11.9322 21.4602 12.0157 21.3587 12.0157H12.9428V8.31417ZM16.7443 2.48547C17.6543 2.48547 18.4231 3.07896 18.4231 3.7812C18.4231 4.48344 17.6543 5.07693 16.7443 5.07693H14.4153C15.3692 3.67915 16.3493 2.56839 16.7443 2.48547ZM7.22866 2.48388C7.64354 2.56807 8.62859 3.67947 9.58377 5.07756H7.25475C6.34482 5.07756 5.57602 4.48407 5.57602 3.78184C5.57602 3.0796 6.34482 2.48547 7.22866 2.48388ZM3.61254 21.3295V13.9295H11.0569V21.516H3.79609C3.69489 21.5163 3.61254 21.4325 3.61254 21.3295ZM20.3567 21.5163H12.9428V13.9295H20.5409V21.3292C20.5409 21.4325 20.4582 21.5163 20.3567 21.5163Z" fill="#520055"/>
</svg>
