<svg width="18" height="23" viewBox="0 0 18 23" xmlns="http://www.w3.org/2000/svg">
<path d="M2.76924 6.23064H1.38462C0.619618 6.23064 0 6.85094 0 7.61526V20.7691C0 21.5341 0.619618 22.1537 1.38462 22.1537H2.76924C3.53424 22.1537 4.15385 21.5341 4.15385 20.7691V7.61526C4.15385 6.85026 3.53424 6.23064 2.76924 6.23064ZM9.6923 -0.00012207H8.30768C7.54271 -0.00012207 6.92309 0.619496 6.92309 1.3845V20.7691C6.92309 21.5341 7.54271 22.1537 8.30771 22.1537H9.69232C10.4574 22.1537 11.0769 21.5341 11.0769 20.7691V1.3845C11.0769 0.619496 10.4573 -0.00012207 9.6923 -0.00012207ZM16.6154 11.0768H15.2308C14.4658 11.0768 13.8462 11.6964 13.8462 12.4614V20.7691C13.8462 21.5341 14.4658 22.1537 15.2308 22.1537H16.6154C17.3804 22.1537 18 21.5341 18 20.7691V12.4614C18 11.6964 17.3804 11.0768 16.6154 11.0768Z" />
</svg>
