<svg width="32" height="32" viewBox="0 0 32 32" fill="none" xmlns="http://www.w3.org/2000/svg">
<g clip-path="url(#clip0)">
<path d="M28.7293 5.18247L16.4793 0.0964092C16.1724 -0.0309658 15.8275 -0.0310283 15.5207 0.0964092L3.27069 5.18247C2.80413 5.37622 2.5 5.83172 2.5 6.33691V12.5197C2.5 21.033 7.64556 28.691 15.5276 31.9082C15.8304 32.0317 16.1696 32.0317 16.4724 31.9082C24.3543 28.691 29.5 21.0331 29.5 12.5197V6.33691C29.5 5.83172 29.1959 5.37622 28.7293 5.18247ZM27 12.5197C27 19.7569 22.75 26.4192 16 29.3931C9.43038 26.4987 5 19.953 5 12.5197V7.17141L16 2.60428L27 7.17141V12.5197ZM14.6184 16.7331L19.9911 11.3604C20.4792 10.8723 21.2707 10.8722 21.7589 11.3604C22.2471 11.8486 22.247 12.64 21.7588 13.1282L15.5022 19.3847C15.014 19.873 14.2226 19.8728 13.7345 19.3847L10.2411 15.8913C9.75294 15.4032 9.75294 14.6117 10.2411 14.1236C10.7293 13.6355 11.5208 13.6354 12.0089 14.1236L14.6184 16.7331Z" fill="#520055"/>
</g>
<defs>
<clipPath id="clip0">
<rect width="32" height="32" fill="white" transform="translate(0 0.000854492)"/>
</clipPath>
</defs>
</svg>
