<?xml version="1.0" encoding="UTF-8"?>
<!DOCTYPE svg PUBLIC "-//W3C//DTD SVG 1.1//EN" "http://www.w3.org/Graphics/SVG/1.1/DTD/svg11.dtd">
<!-- Creator: CorelDRAW X7 -->
<svg xmlns="http://www.w3.org/2000/svg" xml:space="preserve" width="100px" height="100px" version="1.1" style="shape-rendering:geometricPrecision; text-rendering:geometricPrecision; image-rendering:optimizeQuality; fill-rule:evenodd; clip-rule:evenodd"
viewBox="0 0 115 115"
 xmlns:xlink="http://www.w3.org/1999/xlink">
 <defs>
  <style type="text/css">
   <![CDATA[
    .fil0 {fill:#FF9700}
    .fil1 {fill:white}
   ]]>
  </style>
 </defs>
 <g id="Слой_x0020_1">
  <metadata id="CorelCorpID_0Corel-Layer"/>
  <g id="_632101168">
   <path class="fil0" d="M53 0c-12,1 -22,5 -31,12 0,1 -1,1 -2,2 0,0 0,0 -1,1 -3,3 -8,8 -10,12 -7,11 -10,22 -9,35 2,30 29,55 62,53 30,-2 55,-29 53,-62 -2,-30 -29,-55 -62,-53z"/>
   <path class="fil1" d="M38 34c-2,0 -13,0 -15,0 -1,1 -2,2 -2,3 0,1 0,14 0,15 1,2 3,2 3,3l0 25c0,3 -1,7 0,8 1,3 4,2 7,2l52 0c3,0 5,1 7,-2 1,-1 0,-6 0,-8 0,-3 0,-5 0,-8 0,-6 0,-12 0,-18 4,-1 3,-3 3,-7 0,-2 0,-8 0,-10 -1,-3 -5,-3 -7,-3 -3,0 -7,0 -10,0 1,-3 1,-5 0,-8 -2,-5 -7,-8 -12,-8 -3,0 -6,2 -7,3 -2,-1 -3,-2 -7,-3 -3,0 -6,1 -8,2 -2,1 -3,3 -4,6 -1,3 -1,5 0,8z"/>
   <polygon class="fil0" points="61,82 61,83 83,83 83,82 83,54 61,54 "/>
   <polygon class="fil0" points="31,83 31,83 53,83 53,83 53,83 53,54 31,54 "/>
   <polygon class="fil0" points="61,47 61,47 86,47 86,41 61,41 "/>
   <polygon class="fil0" points="28,47 53,47 53,41 28,41 "/>
   <path class="fil0" d="M61 34c3,0 5,1 7,-1 5,-4 -2,-11 -6,-6 -2,1 -1,4 -1,7z"/>
   <path class="fil0" d="M53 34c0,-3 1,-6 -1,-8 -2,-1 -5,-1 -6,1 -2,1 -2,4 0,6 1,2 4,1 7,1z"/>
  </g>
 </g>
</svg>
