<svg width="254" height="136" viewBox="0 0 254 136" fill="none" xmlns="http://www.w3.org/2000/svg">
<path d="M198.203 81.538C205.976 81.538 213.193 82.9228 219.856 85.6924C226.703 88.4621 232.625 92.2472 237.622 97.0479C242.804 101.849 246.783 107.573 249.558 114.22C252.519 120.682 254 127.699 254 135.269C254 142.839 252.519 149.948 249.558 156.595C246.783 163.058 242.804 168.689 237.622 173.49C232.625 178.291 226.703 182.076 219.856 184.846C213.193 187.615 205.976 189 198.203 189C190.431 189 183.121 187.615 176.273 184.846C169.611 182.076 163.689 178.291 158.507 173.49C153.51 168.689 149.532 163.058 146.57 156.595C143.795 149.948 142.407 142.839 142.407 135.269C142.407 127.699 143.795 120.682 146.57 114.22C149.532 107.573 153.51 101.849 158.507 97.0479C163.689 92.2472 169.611 88.4621 176.273 85.6924C183.121 82.9228 190.431 81.538 198.203 81.538ZM165.169 -8.19839C166.835 -11.1527 168.686 -13.6454 170.721 -15.6764C172.942 -17.8921 176.551 -19 181.548 -19C185.804 -19 189.32 -18.2614 192.096 -16.7843C194.872 -15.3071 196.63 -14.1993 197.37 -13.4607L84.1115 185.123H54.4087L165.169 -8.19839ZM227.073 135.269C227.073 131.207 226.333 127.422 224.852 123.913C223.372 120.221 221.336 117.082 218.745 114.497C216.154 111.912 213.101 109.881 209.585 108.403C206.068 106.742 202.275 105.911 198.203 105.911C194.132 105.911 190.338 106.742 186.822 108.403C183.306 109.881 180.252 111.912 177.661 114.497C175.07 117.082 173.035 120.221 171.554 123.913C170.074 127.422 169.333 131.207 169.333 135.269C169.333 139.331 170.074 143.209 171.554 146.901C173.035 150.41 175.07 153.456 177.661 156.041C180.252 158.626 183.306 160.75 186.822 162.411C190.338 163.889 194.132 164.627 198.203 164.627C202.275 164.627 206.068 163.889 209.585 162.411C213.101 160.75 216.154 158.626 218.745 156.041C221.336 153.456 223.372 150.41 224.852 146.901C226.333 143.209 227.073 139.331 227.073 135.269ZM0 34.731C0 27.1607 1.38798 20.1443 4.16393 13.6818C7.12495 7.03463 11.1038 1.3107 16.1005 -3.49002C21.2823 -8.29072 27.2044 -12.0759 33.8667 -14.8455C40.714 -17.6152 48.024 -19 55.7967 -19C63.5694 -19 70.7869 -17.6152 77.4492 -14.8455C84.2965 -12.0759 90.2186 -8.29072 95.2153 -3.49002C100.397 1.3107 104.376 7.03463 107.152 13.6818C110.113 20.1443 111.593 27.1607 111.593 34.731C111.593 42.3014 110.113 49.4101 107.152 56.0573C104.376 62.5198 100.397 68.1514 95.2153 72.9521C90.2186 77.7528 84.2965 81.5379 77.4492 84.3076C70.7869 87.0772 63.5694 88.4621 55.7967 88.4621C48.024 88.4621 40.714 87.0772 33.8667 84.3076C27.2044 81.5379 21.2823 77.7528 16.1005 72.9521C11.1038 68.1514 7.12495 62.5198 4.16393 56.0573C1.38798 49.4101 0 42.3014 0 34.731ZM55.7967 64.0892C59.8681 64.0892 63.6619 63.3507 67.1781 61.8735C70.6944 60.2117 73.7479 58.0883 76.3388 55.5033C78.9297 52.9183 80.9654 49.8717 82.4459 46.3635C83.9264 42.6707 84.6667 38.7932 84.6667 34.731C84.6667 30.6689 83.9264 26.8837 82.4459 23.3755C80.9654 19.6826 78.9297 16.5437 76.3388 13.9587C73.7479 11.3737 70.6944 9.34266 67.1781 7.86551C63.6619 6.20373 59.8681 5.37283 55.7967 5.37283C51.7253 5.37283 47.9315 6.20373 44.4153 7.86551C40.8991 9.34266 37.8455 11.3737 35.2546 13.9587C32.6637 16.5437 30.628 19.6826 29.1475 23.3755C27.667 26.8837 26.9268 30.6689 26.9268 34.731C26.9268 38.7932 27.667 42.6707 29.1475 46.3635C30.628 49.8717 32.6637 52.9183 35.2546 55.5033C37.8455 58.0883 40.8991 60.2117 44.4153 61.8735C47.9315 63.3507 51.7253 64.0892 55.7967 64.0892Z" fill="url(#paint0_linear)"/>
<defs>
<linearGradient id="paint0_linear" x1="127" y1="-19" x2="127" y2="189" gradientUnits="userSpaceOnUse">
<stop stop-color="#471962"/>
<stop offset="1" stop-color="#823084"/>
</linearGradient>
</defs>
</svg>
